<?xml version="1.0" ?><svg data-name="图层 1" id="图层_1" viewBox="0 0 500 500" xmlns="http://www.w3.org/2000/svg"><defs><style>.cls-1{fill:none;}.cls-2{fill:#231815;}</style></defs><title/><path class="cls-1" d="M236.75,272.11A82.26,82.26,0,0,1,316,241.64a76.19,76.19,0,0,1,10.36,2.59,82.65,82.65,0,0,0-64.92-68.08C228.11,169.4,193.17,185,175.64,214a83,83,0,0,0-4.41,76.58c.47-.46.94-.92,1.42-1.37A70.52,70.52,0,0,1,236.75,272.11Z"/><path class="cls-2" d="M171.23,290.58A83,83,0,0,1,175.64,214c17.54-28.95,52.48-44.6,85.76-37.86a82.65,82.65,0,0,1,64.92,68.08,78.27,78.27,0,0,1,15.84,7.19,98,98,0,0,0-63.86-86.09c-37.69-13.82-81.9-1.62-107.27,29.43-25,30.6-29.26,74.3-10,108.8A67.76,67.76,0,0,1,171.23,290.58Z"/><path class="cls-2" d="M253.07,131.54V97.89c0-9.65-15-9.67-15,0v33.65C238.07,141.19,253.07,141.21,253.07,131.54Zm-7.5-33.65v0Z"/><path class="cls-2" d="M176.66,152.05c4.83,8.36,17.79.81,13-7.57l-16.83-29.15c-4.83-8.36-17.79-.81-13,7.57Zm6.48-3.79-16.83-29.15Z"/><path class="cls-2" d="M141.22,187.49l-29.15-16.83c-8.37-4.84-15.94,8.12-7.57,13l29.15,16.83C142,205.28,149.59,192.32,141.22,187.49Zm-32.93-10.35L137.44,194Z"/><path class="cls-2" d="M87.06,263.9h33.65c9.65,0,9.67-15,0-15H87.06C77.4,248.9,77.39,263.9,87.06,263.9Zm33.65-7.5h0Z"/><path class="cls-2" d="M112.08,342.13l29.15-16.83c8.36-4.83.81-17.79-7.57-13l-29.15,16.83C96.15,334,103.69,347,112.08,342.13Zm25.36-23.3-29.15,16.83Z"/><path class="cls-2" d="M370.42,263.9h33.65c9.65,0,9.67-15,0-15H370.42C360.77,248.9,360.75,263.9,370.42,263.9Zm0-7.5h0Z"/><path class="cls-2" d="M357.48,200.44l29.15-16.83c8.36-4.83.81-17.79-7.57-13l-29.15,16.83C341.55,192.32,349.1,205.28,357.48,200.44Zm25.36-23.3L353.7,194Z"/><path class="cls-2" d="M314.47,152.05l16.83-29.15c4.84-8.37-8.12-15.94-13-7.57l-16.83,29.15C296.68,152.86,309.64,160.42,314.47,152.05Zm10.35-32.93L308,148.27Z"/><path class="cls-2" d="M377.25,293.37c.54,1.41,1.05,2.84,1.51,4.29a7.08,7.08,0,0,1,.16,4.09,51.75,51.75,0,0,1-17.73,100.37H220.54a62.23,62.23,0,0,1-55-91.35c-1-1.44-1.95-2.9-2.86-4.4-.56-.93-1.1-1.87-1.62-2.81a71.25,71.25,0,0,0-9.23,48,69.75,69.75,0,0,0,38.58,51.19c11.68,5.47,23.78,6.86,36.45,6.86H350.31c9.8,0,19.5.28,29-2.82,24.63-8.06,41.85-31.83,41.13-57.87A59.93,59.93,0,0,0,377.25,293.37Z"/><path class="cls-2" d="M220.54,277.65a62.16,62.16,0,0,1,19.18,3,73.75,73.75,0,0,1,87.48-28.16,82.09,82.09,0,0,0-.89-8.29A76.19,76.19,0,0,0,316,241.64a82.26,82.26,0,0,0-79.21,30.47c1.67.38,3.32.82,5,1.33l-8.47,3.45q1.68-2.46,3.5-4.78a70.52,70.52,0,0,0-64.11,17.1c-.48.45-1,.91-1.42,1.38a78.51,78.51,0,0,0,3.63,7.06A62.05,62.05,0,0,1,220.54,277.65Z"/><path class="cls-2" d="M241.72,273.44c-1.65-.51-3.3-.95-5-1.33q-1.82,2.32-3.5,4.78Z"/><path class="cls-2" d="M342.22,260.28A74,74,0,0,1,369,292.76a7.49,7.49,0,0,1,4.52-.35c1.26.27,2.5.6,3.73,1a83.68,83.68,0,0,0-35.1-42c.1,1.65.17,3.31.18,5C342.32,257.7,342.28,259,342.22,260.28Z"/><path class="cls-2" d="M369,292.76a73,73,0,0,1,2.53,6.89,51.3,51.3,0,0,1,7.39,2.1,7.08,7.08,0,0,0-.16-4.09c-.46-1.45-1-2.87-1.51-4.29-1.23-.35-2.47-.68-3.73-1A7.49,7.49,0,0,0,369,292.76Z"/><path class="cls-2" d="M342.33,256.4c.06-8.29-11-9.46-14.15-3.5a73.42,73.42,0,0,1,13.39,7A7.44,7.44,0,0,0,342.33,256.4Z"/><path class="cls-2" d="M342.22,260.28c.06-1.29.11-2.59.12-3.89a7.44,7.44,0,0,1-.77,3.46Z"/><path class="cls-2" d="M165.54,310.77a62.36,62.36,0,0,1,9.32-13.13,78.51,78.51,0,0,1-3.63-7.06,67.76,67.76,0,0,0-10.17,13c.53.94,1.06,1.88,1.62,2.81C163.59,307.87,164.56,309.33,165.54,310.77Z"/><path class="cls-2" d="M327.21,252.51l1,.38c3.17-6,14.22-4.79,14.15,3.5,0-1.67-.08-3.33-.18-5a78.27,78.27,0,0,0-15.84-7.19A82.09,82.09,0,0,1,327.21,252.51Z"/><path class="cls-2" d="M237.73,287.91c3.34,1,6.63-.74,8.47-3.45,14.65-21.54,41.42-33.14,67.15-28.1a66.87,66.87,0,0,1,13.82,4.31c.09-1.42.15-2.84.16-4.27s-.06-2.6-.13-3.88a73.75,73.75,0,0,0-87.48,28.16,62.23,62.23,0,0,0-64.87,17c1.29,2.21,2.7,4.36,4.22,6.45C193.47,287.39,216.64,281.4,237.73,287.91Z"/><path class="cls-2" d="M369,292.76a8.33,8.33,0,0,0-4.77,8.68l.07.2c2.45,7.65,12.95,6.18,14.63.1a51.3,51.3,0,0,0-7.39-2.1A73,73,0,0,0,369,292.76Z"/><path class="cls-2" d="M364.3,301.64l-.07-.2a6.35,6.35,0,0,0,5.31,5.44c19.39,4.21,34.72,20.39,35.82,40.61,1,19.06-10.2,37.28-28.18,44.17-8.12,3.11-16.25,2.95-24.72,2.95H237c-5.48,0-11,.05-16.45,0a54.71,54.71,0,0,1-50-77.1q-2.67-3.24-5.06-6.74a62.23,62.23,0,0,0,55,91.35H361.19a51.75,51.75,0,0,0,17.73-100.37C377.25,307.82,366.75,309.3,364.3,301.64Z"/><path class="cls-2" d="M364.24,301.45a8.33,8.33,0,0,1,4.77-8.68,74,74,0,0,0-26.79-32.48q-.21,4.42-.82,8.77A66.85,66.85,0,0,1,364.24,301.45Z"/><path class="cls-2" d="M329.75,261.85q1.46.71,2.88,1.48c3.34.91,7.3-.25,8.93-3.48a73.42,73.42,0,0,0-13.39-7,7.48,7.48,0,0,0-.85,3.5A7,7,0,0,0,329.75,261.85Z"/><path class="cls-2" d="M176.64,307.12c.78-1.05,1.6-2.06,2.44-3-1.52-2.09-2.93-4.24-4.22-6.45a62.36,62.36,0,0,0-9.32,13.13q2.39,3.5,5.06,6.74A54,54,0,0,1,176.64,307.12Z"/><path class="cls-2" d="M327.33,256.4c0,1.43-.07,2.85-.16,4.27q1.3.57,2.57,1.18A7,7,0,0,1,327.33,256.4Z"/><path class="cls-2" d="M328.18,252.89l-1-.38c.07,1.29.12,2.58.13,3.88A7.48,7.48,0,0,1,328.18,252.89Z"/><path class="cls-2" d="M332.63,263.33a67.23,67.23,0,0,1,8.76,5.72q.61-4.34.82-8.77l-.65-.43C339.93,263.09,336,264.24,332.63,263.33Z"/></svg>