<svg width="512" height="512" xmlns="http://www.w3.org/2000/svg">

 <g>
  <title>background</title>
  <rect fill="none" id="canvas_background" height="402" width="582" y="-1" x="-1"/>
 </g>
 <g>
  <title stroke="#fff" fill="#fffffc">Layer 1</title>
  <path stroke="#fff" id="svg_3" fill="#fffffc" d="m400,64c-5.312,0 -10.562,0.375 -15.792,1.125c-29.874,-40.708 -77.02,-65.125 -128.208,-65.125c-51.188,0 -98.312,24.417 -128.208,65.125c-5.23,-0.75 -10.48,-1.125 -15.792,-1.125c-61.75,0 -112,50.25 -112,112s50.25,112 112,112c13.688,0 27.084,-2.5 39.709,-7.333c28.957,25.25 65.791,39.333 104.291,39.333c38.542,0 75.333,-14.083 104.291,-39.333c12.625,4.833 26.021,7.333 39.709,7.333c61.75,0 112,-50.25 112,-112s-50.25,-112 -112,-112zm-175,416c0,17.688 14.312,32 32,32c17.688,0 32,-14.312 32,-32s-32,-64 -32,-64s-32,46.312 -32,64zm127,-32c0,17.688 14.312,32 32,32s32,-14.312 32,-32s-32,-64 -32,-64s-32,46.312 -32,64zm-256,-64c0,17.688 14.312,32 32,32s32,-14.312 32,-32s-32,-64 -32,-64s-32,46.312 -32,64z"/>
 </g>
</svg>