<svg width="500" height="500" xmlns="http://www.w3.org/2000/svg">

 <title/>
 <g>
  <title>background</title>
  <rect fill="none" id="canvas_background" height="402" width="582" y="-1" x="-1"/>
 </g>
 <g>
  <title fill="#ffffff">Layer 1</title>
  <path fill="#ffffff" id="svg_1" d="m325.57,318.72a59.9,59.9 0 0 0 58.79,-52.34c3.7,-30 -17,-58.47 -46.46,-64.86l5.24,5.24c-9.07,-28.39 -33.17,-50.81 -62.81,-56a82.4,82.4 0 0 0 -82.71,35.24l8.47,-3.45c-31.4,-9.69 -66.35,3.77 -82.26,32.77c-15.16,27.65 -9.62,63.37 13.66,84.79a70.91,70.91 0 0 0 47.42,18.61c9.66,0.11 9.66,-14.89 0,-15c-24.5,-0.27 -46.36,-16.6 -52.84,-40.4a55.22,55.22 0 0 1 25.59,-61.82c13.58,-7.83 29.54,-9.09 44.43,-4.49c3.34,1 6.63,-0.74 8.47,-3.45c14.64,-21.54 41.42,-33.14 67.15,-28.1a67.05,67.05 0 0 1 50.95,45.29a7.54,7.54 0 0 0 5.24,5.24c22.53,4.89 38.5,25.75 35.61,49c-2.74,22.09 -22,38.41 -44,38.7c-9.64,0.13 -9.67,15.13 0,15l0.06,0.03z" class="cls-1"/>
  <line fill="#ffffff" id="svg_2" y2="281.06" y1="300.26" x2="205.6" x1="212.97" class="cls-2"/>
  <path fill="#ffffff" id="svg_3" d="m220.2,298.27l-7.37,-19.2c-1.45,-3.78 -5,-6.39 -9.23,-5.24c-3.61,1 -6.7,5.42 -5.24,9.23l7.37,19.2c1.45,3.78 5,6.39 9.23,5.24c3.61,-1 6.7,-5.42 5.24,-9.23z" class="cls-1"/>
  <line fill="#ffffff" id="svg_4" y2="323.94" y1="343.14" x2="222.06" x1="229.44" class="cls-2"/>
  <path fill="#ffffff" id="svg_5" d="m236.67,341.15l-7.37,-19.2c-1.45,-3.78 -5,-6.39 -9.23,-5.24c-3.61,1 -6.7,5.42 -5.24,9.23l7.37,19.2c1.45,3.78 5,6.39 9.23,5.24c3.61,-1 6.7,-5.42 5.24,-9.23z" class="cls-1"/>
  <line fill="#ffffff" id="svg_6" y2="281.06" y1="300.26" x2="243.56" x1="250.93" class="cls-2"/>
  <path fill="#ffffff" id="svg_7" d="m258.16,298.27l-7.37,-19.2c-1.45,-3.78 -5,-6.39 -9.23,-5.24c-3.61,1 -6.7,5.42 -5.24,9.23l7.37,19.2c1.45,3.78 5,6.39 9.23,5.24c3.61,-1 6.7,-5.42 5.24,-9.23z" class="cls-1"/>
  <line fill="#ffffff" id="svg_8" y2="323.94" y1="343.14" x2="260.02" x1="267.4" class="cls-2"/>
  <path fill="#ffffff" id="svg_9" d="m274.63,341.15l-7.37,-19.2c-1.45,-3.78 -5,-6.39 -9.23,-5.24c-3.61,1 -6.7,5.42 -5.24,9.23l7.37,19.2c1.45,3.78 5,6.39 9.23,5.24c3.61,-1 6.7,-5.42 5.24,-9.23z" class="cls-1"/>
  <line fill="#ffffff" id="svg_10" y2="281.06" y1="300.26" x2="281.52" x1="288.89" class="cls-2"/>
  <path fill="#ffffff" id="svg_11" d="m296.12,298.27l-7.37,-19.2c-1.45,-3.78 -5,-6.39 -9.23,-5.24c-3.61,1 -6.7,5.42 -5.24,9.23l7.37,19.2c1.45,3.78 5,6.39 9.23,5.24c3.61,-1 6.7,-5.42 5.24,-9.23z" class="cls-1"/>
  <line fill="#ffffff" id="svg_12" y2="323.94" y1="343.14" x2="297.99" x1="305.36" class="cls-2"/>
  <path fill="#ffffff" id="svg_13" d="m312.59,341.15l-7.37,-19.2c-1.45,-3.78 -5,-6.39 -9.23,-5.24c-3.61,1 -6.7,5.42 -5.24,9.23l7.37,19.2c1.45,3.78 5,6.39 9.23,5.24c3.61,-1 6.7,-5.42 5.24,-9.23z" class="cls-1"/>
 </g>
</svg>