<svg width="500" height="500" xmlns="http://www.w3.org/2000/svg">

 <title/>
 <g>
  <title>background</title>
  <rect fill="none" id="canvas_background" height="402" width="582" y="-1" x="-1"/>
 </g>
 <g>
  <title fill="#ffffff" stroke="#ffffff">Layer 1</title>
  <path stroke="#ffffff" fill="#ffffff" id="svg_1" d="m325.57,298.24a59.9,59.9 0 0 0 58.79,-52.34c3.7,-30 -17,-58.47 -46.46,-64.86l5.24,5.24c-9.07,-28.39 -33.17,-50.81 -62.81,-56a82.4,82.4 0 0 0 -82.71,35.25l8.47,-3.45c-31.4,-9.69 -66.35,3.77 -82.26,32.77c-15.16,27.65 -9.62,63.37 13.66,84.79a70.91,70.91 0 0 0 47.42,18.61c9.66,0.11 9.66,-14.89 0,-15c-24.5,-0.27 -46.36,-16.6 -52.84,-40.4a55.22,55.22 0 0 1 25.6,-61.85c13.58,-7.83 29.54,-9.09 44.43,-4.49c3.34,1 6.63,-0.74 8.47,-3.45c14.64,-21.54 41.42,-33.14 67.15,-28.1a67.05,67.05 0 0 1 50.95,45.29a7.54,7.54 0 0 0 5.24,5.24c22.53,4.89 38.5,25.75 35.61,49c-2.74,22.09 -22,38.41 -44,38.7c-9.64,0.13 -9.67,15.13 0,15l0.05,0.05z" class="cls-1"/>
  <path stroke="#ffffff" fill="#ffffff" id="svg_2" d="m236.36,290.74c-0.5,13.09 -20.24,13 -20.24,0s19.73,-13.1 20.24,0c0.37,9.62 15.37,9.67 15,0c-0.53,-13.67 -11.07,-25.07 -25.12,-25.12a25.12,25.12 0 1 0 0,50.24c14,0 24.59,-11.49 25.12,-25.12c0.37,-9.65 -14.63,-9.64 -15,0z" class="cls-1"/>
  <path stroke="#ffffff" fill="#ffffff" id="svg_3" d="m295,290.74c-0.5,13.09 -20.24,13 -20.24,0s19.73,-13.1 20.24,0c0.37,9.62 15.37,9.67 15,0c-0.53,-13.67 -11.07,-25.07 -25.12,-25.12a25.12,25.12 0 1 0 0,50.24c14,0 24.59,-11.49 25.12,-25.12c0.35,-9.65 -14.66,-9.64 -15,0z" class="cls-1"/>
  <path stroke="#ffffff" fill="#ffffff" id="svg_4" d="m207.05,346c-0.5,13.09 -20.24,13 -20.24,0s19.73,-13.1 20.24,0c0.37,9.62 15.37,9.67 15,0c-0.53,-13.67 -11.07,-25.07 -25.12,-25.12a25.12,25.12 0 0 0 0,50.24c14,0 24.59,-11.49 25.12,-25.12c0.38,-9.65 -14.63,-9.63 -15,0z" class="cls-1"/>
  <path stroke="#ffffff" fill="#ffffff" id="svg_5" d="m265.67,346c-0.5,13.09 -20.24,13 -20.24,0s19.73,-13.1 20.24,0c0.37,9.62 15.37,9.67 15,0c-0.53,-13.67 -11.07,-25.07 -25.12,-25.12a25.12,25.12 0 0 0 0,50.24c14,0 24.59,-11.49 25.12,-25.12c0.33,-9.65 -14.67,-9.63 -15,0z" class="cls-1"/>
  <path stroke="#ffffff" fill="#ffffff" id="svg_6" d="m324.28,346c-0.5,13.09 -20.24,13 -20.24,0s19.73,-13.1 20.24,0c0.37,9.62 15.37,9.67 15,0c-0.53,-13.67 -11.07,-25.07 -25.12,-25.12a25.12,25.12 0 0 0 0,50.24c14,0 24.59,-11.49 25.12,-25.12c0.37,-9.65 -14.63,-9.63 -15,0z" class="cls-1"/>
 </g>
</svg>