<svg width="500" height="500" xmlns="http://www.w3.org/2000/svg">

 <title/>
 <g>
  <title>background</title>
  <rect fill="none" id="canvas_background" height="402" width="582" y="-1" x="-1"/>
 </g>
 <g>
  <title stroke="#ffffff" fill="#ffffff">Layer 1</title>
  <path stroke="#ffffff" fill="#ffffff" id="svg_1" d="m327.3,250c-0.26,31.93 -20.27,61.69 -50.61,72.59a78.28,78.28 0 0 1 -86.62,-23.7c-20.52,-24.83 -22.88,-61.14 -6.38,-88.66s49.76,-42.55 81.4,-36.08a78.17,78.17 0 0 1 62.21,75.85c0.08,9.65 15.08,9.67 15,0a93.46,93.46 0 0 0 -61,-86.83c-36.08,-13.29 -78.52,-1.52 -102.67,28.34s-27.79,72.65 -7.9,105.83c20,33.39 59.57,50.62 97.68,43.11c42.75,-8.45 73.59,-47.29 73.89,-90.45c0.08,-9.65 -14.92,-9.66 -15,0z" class="cls-1"/>
  <path stroke="#ffffff" fill="#ffffff" id="svg_2" d="m257.5,131.39l0,-32c0,-9.65 -15,-9.67 -15,0l0,32c0,9.65 15,9.67 15,0z" class="cls-1"/>
  <line stroke="#ffffff" fill="#ffffff" id="svg_3" y2="119.59" y1="147.28" x2="174.71" x1="190.69" class="cls-2"/>
  <path stroke="#ffffff" fill="#ffffff" id="svg_4" d="m197.17,143.49l-16,-27.69c-4.83,-8.36 -17.79,-0.81 -13,7.57l16,27.69c4.83,8.36 17.79,0.81 13,-7.57z" class="cls-1"/>
  <line stroke="#ffffff" fill="#ffffff" id="svg_5" y2="174.71" y1="190.69" x2="119.59" x1="147.28" class="cls-2"/>
  <path stroke="#ffffff" fill="#ffffff" id="svg_6" d="m151.06,184.22l-27.69,-16c-8.38,-4.84 -15.94,8.12 -7.57,13l27.69,16c8.38,4.84 15.94,-8.12 7.57,-13z" class="cls-1"/>
  <line stroke="#ffffff" fill="#ffffff" id="svg_7" y2="250" y1="250" x2="99.42" x1="131.39" class="cls-2"/>
  <path stroke="#ffffff" fill="#ffffff" id="svg_8" d="m131.39,242.5l-32,0c-9.65,0 -9.67,15 0,15l32,0c9.65,0 9.67,-15 0,-15z" class="cls-1"/>
  <line stroke="#ffffff" fill="#ffffff" id="svg_9" y2="325.29" y1="309.31" x2="119.59" x1="147.28" class="cls-2"/>
  <path stroke="#ffffff" fill="#ffffff" id="svg_10" d="m143.49,302.83l-27.69,16c-8.36,4.83 -0.81,17.79 7.57,13l27.69,-16c8.36,-4.83 0.81,-17.79 -7.57,-13z" class="cls-1"/>
  <line stroke="#ffffff" fill="#ffffff" id="svg_11" y2="380.41" y1="352.72" x2="174.71" x1="190.69" class="cls-2"/>
  <path stroke="#ffffff" fill="#ffffff" id="svg_12" d="m184.22,348.94l-16,27.69c-4.84,8.38 8.12,15.94 13,7.57l16,-27.69c4.84,-8.38 -8.12,-15.94 -13,-7.57z" class="cls-1"/>
  <line stroke="#ffffff" fill="#ffffff" id="svg_13" y2="400.58" y1="368.61" x2="250" x1="250" class="cls-2"/>
  <path stroke="#ffffff" fill="#ffffff" id="svg_14" d="m242.5,368.61l0,32c0,9.65 15,9.67 15,0l0,-32c0,-9.65 -15,-9.67 -15,0z" class="cls-1"/>
  <line stroke="#ffffff" fill="#ffffff" id="svg_15" y2="380.41" y1="352.72" x2="325.29" x1="309.31" class="cls-2"/>
  <path stroke="#ffffff" fill="#ffffff" id="svg_16" d="m302.83,356.51l16,27.69c4.83,8.36 17.79,0.81 13,-7.57l-16,-27.69c-4.83,-8.36 -17.79,-0.81 -13,7.57z" class="cls-1"/>
  <line stroke="#ffffff" fill="#ffffff" id="svg_17" y2="325.29" y1="309.31" x2="380.41" x1="352.72" class="cls-2"/>
  <path stroke="#ffffff" fill="#ffffff" id="svg_18" d="m348.94,315.78l27.69,16c8.38,4.84 15.94,-8.12 7.57,-13l-27.69,-16c-8.38,-4.84 -15.94,8.12 -7.57,13z" class="cls-1"/>
  <line stroke="#ffffff" fill="#ffffff" id="svg_19" y2="250" y1="250" x2="400.58" x1="368.61" class="cls-2"/>
  <path stroke="#ffffff" fill="#ffffff" id="svg_20" d="m368.61,257.5l32,0c9.65,0 9.67,-15 0,-15l-32,0c-9.65,0 -9.67,15 0,15z" class="cls-1"/>
  <line stroke="#ffffff" fill="#ffffff" id="svg_21" y2="174.71" y1="190.69" x2="380.41" x1="352.72" class="cls-2"/>
  <path stroke="#ffffff" fill="#ffffff" id="svg_22" d="m356.51,197.17l27.69,-16c8.36,-4.83 0.81,-17.79 -7.57,-13l-27.69,16c-8.36,4.83 -0.81,17.79 7.57,13z" class="cls-1"/>
  <line stroke="#ffffff" fill="#ffffff" id="svg_23" y2="119.59" y1="147.28" x2="325.29" x1="309.31" class="cls-2"/>
  <path stroke="#ffffff" fill="#ffffff" id="svg_24" d="m315.78,151.06l16,-27.69c4.84,-8.38 -8.12,-15.94 -13,-7.57l-16,27.69c-4.84,8.38 8.12,15.94 13,7.57z" class="cls-1"/>
  <text stroke="#ffffff" font-weight="700" font-family="DINAlternate-Bold, DIN Alternate" font-size="161.72px" fill="#ffffff" id="svg_25" x="-3.4" y="-30.77" class="cls-3"/>
 </g>
</svg>