<svg width="32" height="32" xmlns="http://www.w3.org/2000/svg">
 <title/>
 <desc/>

 <g>
  <title>background</title>
  <rect fill="none" id="canvas_background" height="402" width="582" y="-1" x="-1"/>
 </g>
 <g>
  <title fill="#ffffff">Layer 1</title>
  <path fill="#ffffff" id="thermometer-half" d="m16.9857,23.16569c1.17265,0.40777 2.0143,1.52275 2.0143,2.83431c0,1.65685 -1.34315,3 -3,3c-1.65685,0 -3,-1.34315 -3,-3c0,-1.31141 0.84146,-2.4263 2.01392,-2.83418c-0.00916,-0.05472 -0.01392,-0.11094 -0.01392,-0.16829l0,-9.99506c0,-0.54671 0.44772,-1.00247 1,-1.00247c0.55614,0 1,0.44882 1,1.00247l0,9.99506c0,0.05719 -0.0049,0.11338 -0.0143,0.16816l0,0zm1.0143,-0.63056c1.1956,0.69162 2,1.98431 2,3.46487c0,2.20914 -1.79086,4 -4,4c-2.20914,0 -4,-1.79086 -4,-4c0,-1.48056 0.8044,-2.77325 2,-3.46487l0,-18.53154c0,-1.11383 0.89543,-2.00359 2,-2.00359c1.11227,0 2,0.89704 2,2.00359l0,18.53154l0,0l0,0zm1,-0.5355c1.21445,0.91221 2,2.36455 2,4.00037c0,2.76142 -2.23858,5 -5,5c-2.76142,0 -5,-2.23858 -5,-5c0,-1.63582 0.78555,-3.08816 2,-4.00037l0,-18.00888c0,-1.64664 1.34315,-2.99075 3,-2.99075c1.65348,0 3,1.33901 3,2.99075l0,18.00888l0,0l0,0z"/>
 </g>
</svg>