<svg width="32" height="32" xmlns="http://www.w3.org/2000/svg">
 <title/>
 <desc/>

 <g>
  <title>background</title>
  <rect fill="none" id="canvas_background" height="402" width="582" y="-1" x="-1"/>
 </g>
 <g>
  <title fill="#ffffff">Layer 1</title>
  <path fill="#ffffff" id="wind-turbine" d="m19.25961,12.55905c2.55538,1.81467 8.70238,6.27993 8.30562,6.96713c-0.39581,0.68557 -7.30413,-2.38886 -10.16602,-3.69992l0,0l0.89257,15.17374c0,0 -0.5,1 -2,1c-1.5,0 -2,-1 -2,-1l0.89258,-15.17374l0,0c-2.86189,1.31106 -9.77021,4.38549 -10.16602,3.69992c-0.39677,-0.6872 5.75024,-5.15246 8.30562,-6.96713c-0.0212,0.14391 -0.03218,0.29115 -0.03218,0.44095c0,1.65685 1.34315,3 3,3c1.65686,0 3,-1.34315 3,-3c0,-0.1498 -0.01098,-0.29704 -0.03217,-0.44095l0,0l0,0zm-1.08833,-1.89745c-0.29497,-3.12941 -1.08723,-10.6616 -1.8795,-10.6616c-0.79226,0 -1.58453,7.53219 -1.8795,10.6616c0.51429,-0.41389 1.16797,-0.6616 1.8795,-0.6616c0.71154,0 1.36522,0.24771 1.8795,0.6616l0,0l0,0zm-1.8795,4.3384c1.10457,0 2,-0.89543 2,-2c0,-1.10457 -0.89543,-2 -2,-2c-1.10457,0 -2,0.89543 -2,2c0,1.10457 0.89543,2 2,2l0,0z"/>
 </g>
</svg>