<svg width="500" height="500" xmlns="http://www.w3.org/2000/svg">

 <title/>
 <g>
  <title>background</title>
  <rect fill="none" id="canvas_background" height="402" width="582" y="-1" x="-1"/>
 </g>
 <g>
  <title fill="#ffffff">Layer 1</title>
  <path fill="#ffffff" id="svg_1" d="m236.75,272.11a82.26,82.26 0 0 1 79.25,-30.47a76.19,76.19 0 0 1 10.36,2.59a82.65,82.65 0 0 0 -64.92,-68.08c-33.33,-6.75 -68.27,8.85 -85.8,37.85a83,83 0 0 0 -4.41,76.58c0.47,-0.46 0.94,-0.92 1.42,-1.37a70.52,70.52 0 0 1 64.1,-17.1z" class="cls-1"/>
  <path fill="#ffffff" id="svg_2" d="m171.23,290.58a83,83 0 0 1 4.41,-76.58c17.54,-28.95 52.48,-44.6 85.76,-37.86a82.65,82.65 0 0 1 64.92,68.08a78.27,78.27 0 0 1 15.84,7.19a98,98 0 0 0 -63.86,-86.09c-37.69,-13.82 -81.9,-1.62 -107.27,29.43c-25,30.6 -29.26,74.3 -10,108.8a67.76,67.76 0 0 1 10.2,-12.97z" class="cls-2"/>
  <path fill="#ffffff" id="svg_3" d="m253.07,131.54l0,-33.65c0,-9.65 -15,-9.67 -15,0l0,33.65c0,9.65 15,9.67 15,0zm-7.5,-33.65l0,0z" class="cls-2"/>
  <path fill="#ffffff" id="svg_4" d="m176.66,152.05c4.83,8.36 17.79,0.81 13,-7.57l-16.83,-29.15c-4.83,-8.36 -17.79,-0.81 -13,7.57l16.83,29.15zm-10.35,-32.94l-16.83,-29.15l16.83,29.15z" class="cls-2"/>
  <path fill="#ffffff" id="svg_5" d="m141.22,187.49l-29.15,-16.83c-8.37,-4.84 -15.94,8.12 -7.57,13l29.15,16.83c8.35,4.79 15.94,-8.17 7.57,-13zm-32.93,-10.35l29.15,16.86l-29.15,-16.86z" class="cls-2"/>
  <path fill="#ffffff" id="svg_6" d="m87.06,263.9l33.65,0c9.65,0 9.67,-15 0,-15l-33.65,0c-9.66,0 -9.67,15 0,15zm33.65,-7.5l0,0z" class="cls-2"/>
  <path fill="#ffffff" id="svg_7" d="m112.08,342.13l29.15,-16.83c8.36,-4.83 0.81,-17.79 -7.57,-13l-29.15,16.83c-8.36,4.87 -0.82,17.87 7.57,13zm25.36,-23.3l-29.15,16.83l29.15,-16.83z" class="cls-2"/>
  <path fill="#ffffff" id="svg_8" d="m370.42,263.9l33.65,0c9.65,0 9.67,-15 0,-15l-33.65,0c-9.65,0 -9.67,15 0,15zm0,-7.5l0,0z" class="cls-2"/>
  <path fill="#ffffff" id="svg_9" d="m357.48,200.44l29.15,-16.83c8.36,-4.83 0.81,-17.79 -7.57,-13l-29.15,16.83c-8.36,4.88 -0.81,17.84 7.57,13zm25.36,-23.3l-29.14,16.86l29.14,-16.86z" class="cls-2"/>
  <path fill="#ffffff" id="svg_10" d="m314.47,152.05l16.83,-29.15c4.84,-8.37 -8.12,-15.94 -13,-7.57l-16.83,29.15c-4.79,8.38 8.17,15.94 13,7.57zm10.35,-32.93l-16.82,29.15l16.82,-29.15z" class="cls-2"/>
  <path fill="#ffffff" id="svg_11" d="m377.25,293.37c0.54,1.41 1.05,2.84 1.51,4.29a7.08,7.08 0 0 1 0.16,4.09a51.75,51.75 0 0 1 -17.73,100.37l-140.65,0a62.23,62.23 0 0 1 -55,-91.35c-1,-1.44 -1.95,-2.9 -2.86,-4.4c-0.56,-0.93 -1.1,-1.87 -1.62,-2.81a71.25,71.25 0 0 0 -9.23,48a69.75,69.75 0 0 0 38.58,51.19c11.68,5.47 23.78,6.86 36.45,6.86l123.45,0c9.8,0 19.5,0.28 29,-2.82c24.63,-8.06 41.85,-31.83 41.13,-57.87a59.93,59.93 0 0 0 -43.19,-55.55z" class="cls-2"/>
  <path fill="#ffffff" id="svg_12" d="m220.54,277.65a62.16,62.16 0 0 1 19.18,3a73.75,73.75 0 0 1 87.48,-28.16a82.09,82.09 0 0 0 -0.89,-8.29a76.19,76.19 0 0 0 -10.31,-2.56a82.26,82.26 0 0 0 -79.21,30.47c1.67,0.38 3.32,0.82 5,1.33l-8.47,3.45q1.68,-2.46 3.5,-4.78a70.52,70.52 0 0 0 -64.11,17.1c-0.48,0.45 -1,0.91 -1.42,1.38a78.51,78.51 0 0 0 3.63,7.06a62.05,62.05 0 0 1 45.62,-20z" class="cls-2"/>
  <path fill="#ffffff" id="svg_13" d="m241.72,273.44c-1.65,-0.51 -3.3,-0.95 -5,-1.33q-1.82,2.32 -3.5,4.78l8.5,-3.45z" class="cls-2"/>
  <path fill="#ffffff" id="svg_14" d="m342.22,260.28a74,74 0 0 1 26.78,32.48a7.49,7.49 0 0 1 4.52,-0.35c1.26,0.27 2.5,0.6 3.73,1a83.68,83.68 0 0 0 -35.1,-42c0.1,1.65 0.17,3.31 0.18,5c-0.01,1.29 -0.05,2.59 -0.11,3.87z" class="cls-2"/>
  <path fill="#ffffff" id="svg_15" d="m369,292.76a73,73 0 0 1 2.53,6.89a51.3,51.3 0 0 1 7.39,2.1a7.08,7.08 0 0 0 -0.16,-4.09c-0.46,-1.45 -1,-2.87 -1.51,-4.29c-1.23,-0.35 -2.47,-0.68 -3.73,-1a7.49,7.49 0 0 0 -4.52,0.39z" class="cls-2"/>
  <path fill="#ffffff" id="svg_16" d="m342.33,256.4c0.06,-8.29 -11,-9.46 -14.15,-3.5a73.42,73.42 0 0 1 13.39,7a7.44,7.44 0 0 0 0.76,-3.5z" class="cls-2"/>
  <path fill="#ffffff" id="svg_17" d="m342.22,260.28c0.06,-1.29 0.11,-2.59 0.12,-3.89a7.44,7.44 0 0 1 -0.77,3.46l0.65,0.43z" class="cls-2"/>
  <path fill="#ffffff" id="svg_18" d="m165.54,310.77a62.36,62.36 0 0 1 9.32,-13.13a78.51,78.51 0 0 1 -3.63,-7.06a67.76,67.76 0 0 0 -10.17,13c0.53,0.94 1.06,1.88 1.62,2.81c0.91,1.48 1.88,2.94 2.86,4.38z" class="cls-2"/>
  <path fill="#ffffff" id="svg_19" d="m327.21,252.51l1,0.38c3.17,-6 14.22,-4.79 14.15,3.5c0,-1.67 -0.08,-3.33 -0.18,-5a78.27,78.27 0 0 0 -15.84,-7.19a82.09,82.09 0 0 1 0.87,8.31z" class="cls-2"/>
  <path fill="#ffffff" id="svg_20" d="m237.73,287.91c3.34,1 6.63,-0.74 8.47,-3.45c14.65,-21.54 41.42,-33.14 67.15,-28.1a66.87,66.87 0 0 1 13.82,4.31c0.09,-1.42 0.15,-2.84 0.16,-4.27s-0.06,-2.6 -0.13,-3.88a73.75,73.75 0 0 0 -87.48,28.16a62.23,62.23 0 0 0 -64.87,17c1.29,2.21 2.7,4.36 4.22,6.45c14.4,-16.74 37.57,-22.73 58.66,-16.22z" class="cls-2"/>
  <path fill="#ffffff" id="svg_21" d="m369,292.76a8.33,8.33 0 0 0 -4.77,8.68l0.07,0.2c2.45,7.65 12.95,6.18 14.63,0.1a51.3,51.3 0 0 0 -7.39,-2.1a73,73 0 0 0 -2.54,-6.88z" class="cls-2"/>
  <path fill="#ffffff" id="svg_22" d="m364.3,301.64l-0.07,-0.2a6.35,6.35 0 0 0 5.31,5.44c19.39,4.21 34.72,20.39 35.82,40.61c1,19.06 -10.2,37.28 -28.18,44.17c-8.12,3.11 -16.25,2.95 -24.72,2.95l-115.46,0c-5.48,0 -11,0.05 -16.45,0a54.71,54.71 0 0 1 -50,-77.1q-2.67,-3.24 -5.06,-6.74a62.23,62.23 0 0 0 55,91.35l140.7,0a51.75,51.75 0 0 0 17.73,-100.37c-1.67,6.07 -12.17,7.55 -14.62,-0.11z" class="cls-2"/>
  <path fill="#ffffff" id="svg_23" d="m364.24,301.45a8.33,8.33 0 0 1 4.77,-8.68a74,74 0 0 0 -26.79,-32.48q-0.21,4.42 -0.82,8.77a66.85,66.85 0 0 1 22.84,32.39z" class="cls-2"/>
  <path fill="#ffffff" id="svg_24" d="m329.75,261.85q1.46,0.71 2.88,1.48c3.34,0.91 7.3,-0.25 8.93,-3.48a73.42,73.42 0 0 0 -13.39,-7a7.48,7.48 0 0 0 -0.85,3.5a7,7 0 0 0 2.43,5.5z" class="cls-2"/>
  <path fill="#ffffff" id="svg_25" d="m176.64,307.12c0.78,-1.05 1.6,-2.06 2.44,-3c-1.52,-2.09 -2.93,-4.24 -4.22,-6.45a62.36,62.36 0 0 0 -9.32,13.13q2.39,3.5 5.06,6.74a54,54 0 0 1 6.04,-10.42z" class="cls-2"/>
  <path fill="#ffffff" id="svg_26" d="m327.33,256.4c0,1.43 -0.07,2.85 -0.16,4.27q1.3,0.57 2.57,1.18a7,7 0 0 1 -2.41,-5.45z" class="cls-2"/>
  <path fill="#ffffff" id="svg_27" d="m328.18,252.89l-1,-0.38c0.07,1.29 0.12,2.58 0.13,3.88a7.48,7.48 0 0 1 0.87,-3.5z" class="cls-2"/>
  <path fill="#ffffff" id="svg_28" d="m332.63,263.33a67.23,67.23 0 0 1 8.76,5.72q0.61,-4.34 0.82,-8.77l-0.65,-0.43c-1.63,3.24 -5.56,4.39 -8.93,3.48z" class="cls-2"/>
 </g>
</svg>