<?xml version="1.0"?>
<svg xmlns="http://www.w3.org/2000/svg" height="512px" viewBox="0 1 511 511.9995" width="512px"><path d="m512.488281 56.246094c0-15.03125-5.855469-29.164063-16.484375-39.792969-21.941406-21.9375-57.648437-21.9375-79.589844 0l-324.320312 324.265625c-25.59375-1.785156-50.734375 7.953125-68.496094 26.855469-30.441406 32.402343-30.84375 83.511719-.914062 116.355469 15.976562 17.535156 37.800781 27.496093 61.453125 28.046874.691406.015626 1.378906.023438 2.070312.023438 22.890625 0 44.335938-8.875 60.578125-25.117188 17.566406-17.5625 26.582032-41.976562 24.894532-66.578124l324.324218-324.269532c10.628906-10.625 16.484375-24.757812 16.484375-39.789062zm-427.652343 425.738281c-15.378907-.359375-29.574219-6.84375-39.976563-18.257813-19.445313-21.339843-19.179687-54.550781.601563-75.609374 10.652343-11.335938 25.386718-17.601563 40.675781-17.601563 3 0 6.019531.242187 9.035156.730469l7.585937 1.238281 45.921876-45.914063 18.5625 18.566407 21.214843-21.214844-18.5625-18.5625 53.832031-53.824219 37.160157 37.15625-120.964844 120.941406 1.234375 7.585938c2.882812 17.699219-2.941406 35.808594-15.582031 48.449219-10.878907 10.878906-25.359375 16.660156-40.738281 16.316406zm389.953124-407.164063-192.6875 192.65625-37.15625-37.15625 53.832032-53.824218 18.550781 18.554687 21.214844-21.214843-18.550781-18.550782 53.832031-53.828125 18.546875 18.546875 21.214844-21.210937-18.546876-18.546875 42.585938-42.578125c10.246094-10.242188 26.917969-10.242188 37.164062 0 4.964844 4.960937 7.695313 11.558593 7.695313 18.574219 0 7.019531-2.730469 13.617187-7.695313 18.578124zm0 0" fill="#FFFFFF"/></svg>
