<svg width="500" height="500" xmlns="http://www.w3.org/2000/svg">

 <title/>
 <g>
  <title>background</title>
  <rect fill="none" id="canvas_background" height="402" width="582" y="-1" x="-1"/>
 </g>
 <g>
  <title fill="#ffffff">Layer 1</title>
  <path fill="#ffffff" id="svg_1" d="m282.42,169c-30.43,-5.89 -62.06,7.78 -79.35,33.29c-1.84,2.71 -5.14,4.48 -8.47,3.45a68.22,68.22 0 0 0 -21.73,-3.24a64.91,64.91 0 0 0 1.41,129.8c6.39,0.05 12.79,0 19.18,0l6.91,0c0,-0.61 0,-1.22 0,-1.84a49.35,49.35 0 0 1 64.55,-46.94a58.44,58.44 0 0 1 104.5,15a40.8,40.8 0 0 1 14.73,6.18a54.15,54.15 0 0 0 6.33,-30.12c-1.91,-23.35 -20,-42 -42.47,-46.81a6.34,6.34 0 0 1 -5.31,-5.45a79.21,79.21 0 0 0 -60.28,-53.32z" class="cls-1"/>
  <path fill="#ffffff" id="svg_2" d="m198.59,191.27q-2.48,-0.77 -5,-1.38q-1.8,2.36 -3.47,4.82l8.47,-3.44z" class="cls-2"/>
  <path fill="#ffffff" id="svg_3" d="m193.46,332.3c-6.39,0 -12.79,0.05 -19.18,0a64.91,64.91 0 0 1 -1.41,-129.8a68.22,68.22 0 0 1 21.73,3.24c3.33,1 6.63,-0.74 8.47,-3.45c17.29,-25.51 48.93,-39.18 79.35,-33.29a79.21,79.21 0 0 1 60.22,53.36c-0.66,-4.67 3.18,-10.33 9.3,-9c1.26,0.27 2.51,0.59 3.75,0.93c-8.64,-23.27 -26.14,-42.95 -49,-53.14a93,93 0 0 0 -113.13,28.76q2.51,0.61 5,1.38l-8.47,3.45q1.67,-2.46 3.47,-4.82a80.83,80.83 0 0 0 -73.46,18.73c-19.84,18.14 -28.77,45.44 -24.66,71.83c4,25.71 21.63,48.74 45.31,59.46c13.28,6 27,7.38 41.3,7.38l21.18,0a49.17,49.17 0 0 1 -2.9,-15l-6.87,-0.02z" class="cls-2"/>
  <path fill="#ffffff" id="svg_4" d="m370.25,220.09a69.15,69.15 0 0 0 -14.56,-5.81q0.79,2.14 1.49,4.31c2.94,9.24 -11.55,13.15 -14.46,4l-0.07,-0.21a6.34,6.34 0 0 0 5.31,5.45c22.46,4.82 40.56,23.46 42.47,46.81a54.15,54.15 0 0 1 -6.33,30.12a41.25,41.25 0 0 1 10.9,10.85a68.75,68.75 0 0 0 10.21,-29.09c3,-26.75 -11.31,-53.68 -34.96,-66.43z" class="cls-2"/>
  <path fill="#ffffff" id="svg_5" d="m342.65,222.36l0.07,0.21c2.92,9.16 17.4,5.25 14.46,-4q-0.69,-2.18 -1.49,-4.31c-1.24,-0.34 -2.49,-0.66 -3.75,-0.93c-6.12,-1.33 -9.94,4.36 -9.29,9.03z" class="cls-2"/>
  <path fill="#ffffff" id="svg_6" d="m376.6,296.57c-7.42,-23 -26.93,-41.41 -51.09,-45.54c-26.37,-4.51 -52.08,6.69 -67.12,28.7l8.47,-3.45a57.66,57.66 0 0 0 -55.5,12.18c-14.19,12.77 -20.58,32.18 -17.79,50.91a56.83,56.83 0 0 0 30.1,41.63c9.77,4.93 20,6.29 30.78,6.29l98.46,0c8.39,0 16.67,0.1 24.71,-2.89c19.42,-7.22 32.75,-26.21 32.06,-47.09a49.09,49.09 0 0 0 -38.31,-46c-9.41,-2.08 -13.42,12.38 -4,14.46c15,3.31 26.77,15.79 27.3,31.53c0.49,14.52 -8.42,28.24 -22.28,33.07c-6.06,2.11 -12.13,1.91 -18.41,1.91l-90.47,0c-4.6,0 -9.2,0.05 -13.8,0a41.85,41.85 0 0 1 -34.3,-65.91c10.53,-15.33 30,-21 47.47,-15.64c3.35,1 6.62,-0.73 8.47,-3.45c11.27,-16.48 31.82,-25.42 51.57,-21.55a51.63,51.63 0 0 1 39.22,34.8c2.95,9.18 17.43,5.27 14.46,-3.96z" class="cls-2"/>
 </g>
</svg>